{"title":"Enemy Of The State 1998 DVD9rip English Klam","uid":8137624,"size":2310170436,"categoryP":"video","categoryS":"movies","magnet":"?xt=urn:btih:4a35ae90dbd89bb7be03d41063c216afb49cd743&amp;dn=Enemy+Of+The+State+1998+DVD9rip+English+Klam&amp;tr=udp%3A%2F%2Ftracker.openbittorrent.com%3A80&amp;tr=udp%3A%2F%2Fopen.demonii.com%3A1337&amp;tr=udp%3A%2F%2Ftracker.coppersurfer.tk%3A6969&amp;tr=udp%3A%2F%2Fexodus.desync.com%3A6969","seeders":1,"leechers":0,"uploader":"Klambake","files":-1,"time":1360747725,"description":"With: Will Smith, Gene Hackman and Jon Voight\n\nWanneer de succesvolle advocaat Robert Clayton Dean een oude vriend tegenkomt, komt hij in het bezit van een disc. Deze disc bevat opnames van een politieke moord. De dader komt er al snel achter dat Dean de disc in bezit heeft, en besluit de bronnen van de National Security Agency te gebruiken om hem te vinden. Dean heeft echter geen idee waarom hij achtervolgd wordt.\n\nA lawyer becomes a target by a corrupt politician and his NSA goons when he accidentally receives key evidence to a serious politically motivated crime. \n &lt;a href=&quot;\nhttp://www.imdb.com/title/tt0120660&quot; rel=&quot;nofollow&quot; target=&quot;_NEW&quot;&gt;\nhttp://www.imdb.com/title/tt0120660&lt;/a&gt;\t\n\n------------------------ Dutch Friends ------------------------\n---------------------------------------------------------------\n- Bezoek ook eens mijn vrienden op: &lt;a href=&quot; http://www.Film-Test.nl&quot; rel=&quot;nofollow&quot; target=&quot;_NEW&quot;&gt; http://www.Film-Test.nl&lt;/a&gt; --\n----- voor mijn Nederlandse Sync. ondertitels ---- en meer ----\n------- http://www.Film-Test.nl ---- Over Films en meer -------\n---------------------------------------------------------------\n\nGeneral\nComplete name                    : G:KlambakeEnemy Of The StateEnemy Of The State.avi\nFormat                           : AVI\nFormat/Info                      : Audio Video Interleave\nFile size                        : 2.15 GiB\nDuration                         : 2h 6mn\nOverall bit rate                 : 2 431 Kbps\n\nVideo\nID                               : 0\nFormat                           : MPEG-4 Visual\nFormat profile                   : Simple@L3\nFormat settings, BVOP            : No\nFormat settings, QPel            : No\nFormat settings, GMC             : No warppoints\nFormat settings, Matrix          : Default (H.263)\nCodec ID                         : XVID\nCodec ID/Hint                    : XviD\nDuration                         : 2h 6mn\nBit rate                         : 2 036 Kbps\nWidth                            : 720 pixels\nHeight                           : 304 pixels\nDisplay aspect ratio             : 2.35:1\nFrame rate                       : 25.000 fps\nColor space                      : YUV\nChroma subsampling               : 4:2:0\nBit depth                        : 8 bits\nScan type                        : Progressive\nCompression mode                 : Lossy\nBits/(Pixel*Frame)               : 0.372\nStream size                      : 1.80 GiB (84%)\nWriting library                  : XviD 1.1.2 (UTC 2006-11-01)\n\nAudio\nID                               : 1\nFormat                           : AC-3\nFormat/Info                      : Audio Coding 3\nMode extension                   : CM (complete main)\nCodec ID                         : 2000\nDuration                         : 2h 6mn\nBit rate mode                    : Constant\nBit rate                         : 384 Kbps\nChannel(s)                       : 6 channels\nChannel positions                : Front: L C R, Side: L R, LFE\nSampling rate                    : 48.0 KHz\nBit depth                        : 16 bits\nCompression mode                 : Lossy\nStream size                      : 348 MiB (16%)\nAlignment                        : Aligned on interleaves\nInterleave, duration             : 32 ms (0.80 video frame)\nInterleave, preload duration     : 288 ms","torrent":{"xt":"urn:btih:4a35ae90dbd89bb7be03d41063c216afb49cd743","amp;dn":"Enemy+Of+The+State+1998+DVD9rip+English+Klam","amp;tr":["udp%3A%2F%2Ftracker.openbittorrent.com%3A80","udp%3A%2F%2Fopen.demonii.com%3A1337","udp%3A%2F%2Ftracker.coppersurfer.tk%3A6969","udp%3A%2F%2Fexodus.desync.com%3A6969"],"infoHash":"4a35ae90dbd89bb7be03d41063c216afb49cd743","infoHashBuffer":{"type":"Buffer","data":[74,53,174,144,219,216,155,183,190,3,212,16,99,194,22,175,180,156,215,67]},"announce":[],"urlList":[]}}